<?xml version="1.0" standalone="no"?><!DOCTYPE svg PUBLIC "-//W3C//DTD SVG 1.1//EN" "http://www.w3.org/Graphics/SVG/1.1/DTD/svg11.dtd"><svg t="1593097449562" class="icon" viewBox="0 0 1024 1024" version="1.1" xmlns="http://www.w3.org/2000/svg" p-id="2793" width="22" height="22" xmlns:xlink="http://www.w3.org/1999/xlink"><defs><style type="text/css"></style></defs><path d="M384 896a32 32 0 0 1-32-32V160a32 32 0 0 1 64 0v704a32 32 0 0 1-32 32z m257.056 0.128a32 32 0 0 1-32-32v-704a32 32 0 1 1 64 0v704a32 32 0 0 1-32 32zM864 736a32 32 0 0 1-32-32V320a32 32 0 1 1 64 0v384a32 32 0 0 1-32 32zM160 736a32 32 0 0 1-32-32V320a32 32 0 0 1 64 0v384a32 32 0 0 1-32 32z" p-id="2794" fill="#bfbfbf"></path></svg>