<?xml version="1.0" standalone="no"?><!DOCTYPE svg PUBLIC "-//W3C//DTD SVG 1.1//EN" "http://www.w3.org/Graphics/SVG/1.1/DTD/svg11.dtd"><svg t="1593103183441" class="icon" viewBox="0 0 1024 1024" version="1.1" xmlns="http://www.w3.org/2000/svg" p-id="2153" xmlns:xlink="http://www.w3.org/1999/xlink" width="22" height="22"><defs><style type="text/css"></style></defs><path d="M798.165333 97.834667a42.624 42.624 0 0 0-60.330666 0l-341.333334 341.333333a42.794667 42.794667 0 0 0-11.221333 19.797333l-42.666667 170.666667a42.666667 42.666667 0 0 0 51.712 51.754667l170.666667-42.666667c7.509333-1.877333 14.378667-5.76 19.84-11.221333l341.333333-341.333334a42.624 42.624 0 0 0 0-60.330666l-128-128z m-265.344 460.970666l-90.197333 22.528 22.570667-90.197333L768 188.330667 835.669333 256l-302.848 302.805333z" fill="#707070" p-id="2154"></path><path d="M213.333333 853.333333h597.333334a42.666667 42.666667 0 0 0 42.666666-42.666666v-256h-85.333333v213.333333H256V256h213.333333V170.666667H213.333333a42.666667 42.666667 0 0 0-42.666666 42.666666v597.333334a42.666667 42.666667 0 0 0 42.666666 42.666666z" fill="#707070" p-id="2155"></path></svg>